{
  "accessors": [
    {
      "bufferView": 2,
      "componentType": 5126,
      "count": 289,
      "max": [
        0.7198156118392944,
        0.3743498623371124,
        1.0012115240097046
      ],
      "min": [
        -0.7198156118392944,
        -0.3743498623371124,
        0.01943233609199524
      ],
      "type": "VEC3"
    },
    {
      "bufferView": 2,
      "byteOffset": 3468,
      "componentType": 5126,
      "count": 289,
      "max": [
        1.0,
        0.9958586096763611,
        1.0
      ],
      "min": [
        -1.0,
        -0.9955805540084839,
        -1.0
      ],
      "type": "VEC3"
    },
    {
      "bufferView": 3,
      "componentType": 5126,
      "count": 289,
      "max": [
        0.9760010242462158,
        1.0,
        1.0,
        1.0
      ],
      "min": [
        -0.974050760269165,
        -1.0,
        -1.0,
        1.0
      ],
      "type": "VEC4"
    },
    {
      "bufferView": 1,
      "componentType": 5126,
      "count": 289,
      "max": [
        0.903285026550293,
        0.9981595277786255
      ],
      "min": [
        0.0018404722213745117,
        0.0018404852598905563
      ],
      "type": "VEC2"
    },
    {
      "bufferView": 0,
      "componentType": 5125,
      "count": 1032,
      "type": "SCALAR"
    },
    {
      "bufferView": 2,
      "byteOffset": 6936,
      "componentType": 5126,
      "count": 720,
      "max": [
        0.38221117854118347,
        0.38160988688468933,
        1.00412917137146
      ],
      "min": [
        -0.38221117854118347,
        -0.38160988688468933,
        0.012849420309066772
      ],
      "type": "VEC3"
    },
    {
      "bufferView": 2,
      "byteOffset": 15576,
      "componentType": 5126,
      "count": 720,
      "max": [
        0.9999688863754272,
        1.0,
        0.9222649931907654
      ],
      "min": [
        -0.9999688863754272,
        -0.9937798976898193,
        -1.0
      ],
      "type": "VEC3"
    },
    {
      "bufferView": 3,
      "byteOffset": 4624,
      "componentType": 5126,
      "count": 720,
      "max": [
        1.0,
        0.9866912364959717,
        0.9383280873298645,
        1.0
      ],
      "min": [
        -1.0,
        -0.9836810827255249,
        -0.9561084508895874,
        -1.0
      ],
      "type": "VEC4"
    },
    {
      "bufferView": 1,
      "byteOffset": 2312,
      "componentType": 5126,
      "count": 720,
      "max": [
        0.9928262829780579,
        0.9967555999755859
      ],
      "min": [
        0.21510255336761475,
        0.0018404722213745117
      ],
      "type": "VEC2"
    },
    {
      "bufferView": 0,
      "byteOffset": 4128,
      "componentType": 5125,
      "count": 2136,
      "type": "SCALAR"
    },
    {
      "bufferView": 2,
      "byteOffset": 24216,
      "componentType": 5126,
      "count": 450,
      "max": [
        0.7663076519966125,
        0.11121812462806702,
        0.45642518997192383
      ],
      "min": [
        -0.7663076519966125,
        -0.07997574657201767,
        0.3591021001338959
      ],
      "type": "VEC3"
    },
    {
      "bufferView": 2,
      "byteOffset": 29616,
      "componentType": 5126,
      "count": 450,
      "max": [
        0.9992647171020508,
        0.9800634384155273,
        0.9750298261642456
      ],
      "min": [
        -0.9992647171020508,
        -0.981700599193573,
        -0.9781672954559326
      ],
      "type": "VEC3"
    },
    {
      "bufferView": 3,
      "byteOffset": 16144,
      "componentType": 5126,
      "count": 450,
      "max": [
        0.9996101260185242,
        0.9657808542251587,
        0.9992021322250366,
        1.0
      ],
      "min": [
        -0.9996101260185242,
        -0.9687933921813965,
        -0.9957436323165894,
        -1.0
      ],
      "type": "VEC4"
    },
    {
      "bufferView": 1,
      "byteOffset": 8072,
      "componentType": 5126,
      "count": 450,
      "max": [
        0.25612810254096985,
        0.8605183362960815
      ],
      "min": [
        0.24365438520908356,
        0.7890993356704712
      ],
      "type": "VEC2"
    },
    {
      "bufferView": 0,
      "byteOffset": 12672,
      "componentType": 5125,
      "count": 2208,
      "type": "SCALAR"
    },
    {
      "bufferView": 2,
      "byteOffset": 35016,
      "componentType": 5126,
      "count": 716,
      "max": [
        0.05465754121541977,
        0.38160988688468933,
        1.00412917137146
      ],
      "min": [
        -0.05440458655357361,
        -0.4028705060482025,
        0.48712801933288574
      ],
      "type": "VEC3"
    },
    {
      "bufferView": 2,
      "byteOffset": 43608,
      "componentType": 5126,
      "count": 716,
      "max": [
        0.9955698251724243,
        1.0,
        1.0
      ],
      "min": [
        -0.9956578016281128,
        -1.0,
        -1.0
      ],
      "type": "VEC3"
    },
    {
      "bufferView": 3,
      "byteOffset": 23344,
      "componentType": 5126,
      "count": 716,
      "max": [
        1.0,
        0.9884229302406311,
        0.9598058462142944,
        1.0
      ],
      "min": [
        -1.0,
        -0.9069046974182129,
        -0.9549463987350464,
        -1.0
      ],
      "type": "VEC4"
    },
    {
      "bufferView": 1,
      "byteOffset": 11672,
      "componentType": 5126,
      "count": 716,
      "max": [
        0.9454891085624695,
        0.9777502417564392
      ],
      "min": [
        0.25510454177856445,
        0.0018404852598905563
      ],
      "type": "VEC2"
    },
    {
      "bufferView": 0,
      "byteOffset": 21504,
      "componentType": 5125,
      "count": 2736,
      "type": "SCALAR"
    },
    {
      "bufferView": 2,
      "byteOffset": 52200,
      "componentType": 5126,
      "count": 920,
      "max": [
        0.7569823265075684,
        0.06730826199054718,
        0.47822117805480957
      ],
      "min": [
        -0.7569823265075684,
        -0.05820627883076668,
        0.4506203234195709
      ],
      "type": "VEC3"
    },
    {
      "bufferView": 2,
      "byteOffset": 63240,
      "componentType": 5126,
      "count": 920,
      "max": [
        0.7342603206634521,
        1.0,
        0.8078187108039856
      ],
      "min": [
        -0.7342603206634521,
        -1.0,
        -0.8078187108039856
      ],
      "type": "VEC3"
    },
    {
      "bufferView": 3,
      "byteOffset": 34800,
      "componentType": 5126,
      "count": 920,
      "max": [
        0.9960298538208008,
        0.8348692655563354,
        0.9953146576881409,
        1.0
      ],
      "min": [
        -0.9960298538208008,
        -0.760461151599884,
        -0.9999730587005615,
        -1.0
      ],
      "type": "VEC4"
    },
    {
      "bufferView": 1,
      "byteOffset": 17400,
      "componentType": 5126,
      "count": 920,
      "max": [
        0.9272149801254272,
        0.9320440888404846
      ],
      "min": [
        0.2506459951400757,
        0.743364155292511
      ],
      "type": "VEC2"
    },
    {
      "bufferView": 0,
      "byteOffset": 32448,
      "componentType": 5125,
      "count": 2544,
      "type": "SCALAR"
    }
  ],
  "asset": {
    "extras": {
      "author": "Janis Zeps (https://sketchfab.com/zeps9001)",
      "license": "CC-BY-4.0 (http://creativecommons.org/licenses/by/4.0/)",
      "source": "https://sketchfab.com/3d-models/old-chest-117ecc862c114cc69fd61bd82b1510e7",
      "title": "Old Chest"
    },
    "generator": "Sketchfab-11.88.0",
    "version": "2.0"
  },
  "bufferViews": [
    {
      "buffer": 0,
      "byteLength": 42624,
      "name": "floatBufferViews",
      "target": 34963
    },
    {
      "buffer": 0,
      "byteLength": 24760,
      "byteOffset": 42624,
      "byteStride": 8,
      "name": "floatBufferViews",
      "target": 34962
    },
    {
      "buffer": 0,
      "byteLength": 74280,
      "byteOffset": 67384,
      "byteStride": 12,
      "name": "floatBufferViews",
      "target": 34962
    },
    {
      "buffer": 0,
      "byteLength": 49520,
      "byteOffset": 141664,
      "byteStride": 16,
      "name": "floatBufferViews",
      "target": 34962
    }
  ],
  "buffers": [
    {
      "byteLength": 191184,
      "uri": "scene.bin"
    }
  ],
  "images": [
    {
      "uri": "textures/chest_baseColor.png"
    },
    {
      "uri": "textures/chest_metallicRoughness.png"
    },
    {
      "uri": "textures/chest_normal.png"
    }
  ],
  "materials": [
    {
      "doubleSided": true,
      "name": "chest",
      "normalTexture": {
        "index": 2
      },
      "occlusionTexture": {
        "index": 1
      },
      "pbrMetallicRoughness": {
        "baseColorTexture": {
          "index": 0
        },
        "metallicRoughnessTexture": {
          "index": 1
        }
      }
    }
  ],
  "meshes": [
    {
      "name": "trunk_low_chest_0",
      "primitives": [
        {
          "attributes": {
            "NORMAL": 1,
            "POSITION": 0,
            "TANGENT": 2,
            "TEXCOORD_0": 3
          },
          "indices": 4,
          "material": 0,
          "mode": 4
        }
      ]
    },
    {
      "name": "strapsTopSides_low_chest_0",
      "primitives": [
        {
          "attributes": {
            "NORMAL": 6,
            "POSITION": 5,
            "TANGENT": 7,
            "TEXCOORD_0": 8
          },
          "indices": 9,
          "material": 0,
          "mode": 4
        }
      ]
    },
    {
      "name": "handle_chest_0",
      "primitives": [
        {
          "attributes": {
            "NORMAL": 11,
            "POSITION": 10,
            "TANGENT": 12,
            "TEXCOORD_0": 13
          },
          "indices": 14,
          "material": 0,
          "mode": 4
        }
      ]
    },
    {
      "name": "strapsTopMiddle_low_chest_0",
      "primitives": [
        {
          "attributes": {
            "NORMAL": 16,
            "POSITION": 15,
            "TANGENT": 17,
            "TEXCOORD_0": 18
          },
          "indices": 19,
          "material": 0,
          "mode": 4
        }
      ]
    },
    {
      "name": "handleBase_low_chest_0",
      "primitives": [
        {
          "attributes": {
            "NORMAL": 21,
            "POSITION": 20,
            "TANGENT": 22,
            "TEXCOORD_0": 23
          },
          "indices": 24,
          "material": 0,
          "mode": 4
        }
      ]
    }
  ],
  "nodes": [
    {
      "children": [
        1
      ],
      "matrix": [
        1.0,
        0.0,
        0.0,
        0.0,
        0.0,
        2.220446049250313e-16,
        -1.0,
        0.0,
        0.0,
        1.0,
        2.220446049250313e-16,
        0.0,
        0.0,
        0.0,
        0.0,
        1.0
      ],
      "name": "Sketchfab_model"
    },
    {
      "children": [
        2
      ],
      "matrix": [
        0.009999999776482582,
        0.0,
        0.0,
        0.0,
        0.0,
        0.0,
        0.009999999776482582,
        0.0,
        0.0,
        -0.009999999776482582,
        0.0,
        0.0,
        0.0,
        0.0,
        0.0,
        1.0
      ],
      "name": "3d79ef9383ad4a3a9c8f187a67ee61d9.fbx"
    },
    {
      "children": [
        3,
        5,
        7,
        9,
        11
      ],
      "name": "RootNode"
    },
    {
      "children": [
        4
      ],
      "matrix": [
        100.0,
        0.0,
        0.0,
        0.0,
        0.0,
        -1.629206793918314e-05,
        -99.99999999999868,
        0.0,
        0.0,
        99.99999999999868,
        -1.629206793918314e-05,
        0.0,
        0.0,
        0.0,
        0.0,
        1.0
      ],
      "name": "trunk_low"
    },
    {
      "mesh": 0,
      "name": "trunk_low_chest_0"
    },
    {
      "children": [
        6
      ],
      "matrix": [
        100.0,
        0.0,
        0.0,
        0.0,
        0.0,
        -1.629206793918314e-05,
        -99.99999999999868,
        0.0,
        0.0,
        99.99999999999868,
        -1.629206793918314e-05,
        0.0,
        0.0,
        0.0,
        0.0,
        1.0
      ],
      "name": "strapsTopSides_low"
    },
    {
      "mesh": 1,
      "name": "strapsTopSides_low_chest_0"
    },
    {
      "children": [
        8
      ],
      "matrix": [
        100.0,
        5.346542687011517e-16,
        6.437491111928534e-18,
        0.0,
        -6.4381126695406905e-18,
        2.4078620709332976,
        -99.97100679820805,
        0.0,
        -5.346542612169417e-16,
        99.97100679820805,
        2.4078620709332976,
        0.0,
        0.00826120376586914,
        1.942870020866394,
        0.13943947851657867,
        1.0
      ],
      "name": "handle"
    },
    {
      "mesh": 2,
      "name": "handle_chest_0"
    },
    {
      "children": [
        10
      ],
      "matrix": [
        100.0,
        0.0,
        0.0,
        0.0,
        0.0,
        -1.629206793918314e-05,
        -99.99999999999868,
        0.0,
        0.0,
        99.99999999999868,
        -1.629206793918314e-05,
        0.0,
        0.0,
        0.0,
        0.0,
        1.0
      ],
      "name": "strapsTopMiddle_low"
    },
    {
      "mesh": 3,
      "name": "strapsTopMiddle_low_chest_0"
    },
    {
      "children": [
        12
      ],
      "matrix": [
        100.0,
        0.0,
        0.0,
        0.0,
        0.0,
        -1.629206793918314e-05,
        -99.99999999999868,
        0.0,
        0.0,
        99.99999999999868,
        -1.629206793918314e-05,
        0.0,
        0.0,
        0.0,
        0.0,
        1.0
      ],
      "name": "handleBase_low"
    },
    {
      "mesh": 4,
      "name": "handleBase_low_chest_0"
    }
  ],
  "samplers": [
    {
      "magFilter": 9729,
      "minFilter": 9987,
      "wrapS": 10497,
      "wrapT": 10497
    }
  ],
  "scene": 0,
  "scenes": [
    {
      "name": "Sketchfab_Scene",
      "nodes": [
        0
      ]
    }
  ],
  "textures": [
    {
      "sampler": 0,
      "source": 0
    },
    {
      "sampler": 0,
      "source": 1
    },
    {
      "sampler": 0,
      "source": 2
    }
  ]
}
